<svg
        width="24"
        height="24"
        viewBox="0 0 24 24"
        fill="none"
        xmlns="http://www.w3.org/2000/svg"
>
    <circle cx="12" cy="12" r="12" fill="#2563eb"/>
    <path
            d="M3 8C5 6 7 10 9 8C11 6 13 10 15 8C17 6 19 10 21 8"
            stroke="white"
            stroke-width="2"
            stroke-linecap="round"
            stroke-linejoin="round"
    />
    <path
            d="M3 12C5 10 7 14 9 12C11 10 13 14 15 12C17 10 19 14 21 12"
            stroke="white"
            stroke-width="2"
            stroke-linecap="round"
            stroke-linejoin="round"
    />
    <path
            d="M3 16C5 14 7 18 9 16C11 14 13 18 15 16C17 14 19 18 21 16"
            stroke="white"
            stroke-width="2"
            stroke-linecap="round"
            stroke-linejoin="round"
    />
</svg>